HIERARCHY
ROOT Hips
{
  OFFSET -187.679 86.5976 -156.378
  CHANNELS 6 Xposition Yposition Zposition Zrotation Xrotation Yrotation
  JOINT LeftUpLeg
  {
    OFFSET 8.64259 1.95398 -2.38835
    CHANNELS 3 Zrotation Xrotation Yrotation
    JOINT LeftLeg
    {
      OFFSET 43.7702 0 0
      CHANNELS 3 Zrotation Xrotation Yrotation
      JOINT LeftFoot
      {
        OFFSET 40.6238 0 0
        CHANNELS 3 Zrotation Xrotation Yrotation
        JOINT LeftToeBase
        {
          OFFSET 12.7242 0 0
          CHANNELS 3 Zrotation Xrotation Yrotation
          End Site
          {
            OFFSET 0 0 0
          }
        }
      }
    }
  }
  JOINT RightUpLeg
  {
    OFFSET -8.2249 1.95398 -2.59336
    CHANNELS 3 Zrotation Xrotation Yrotation
    JOINT RightLeg
    {
      OFFSET 43.5653 0 0
      CHANNELS 3 Zrotation Xrotation Yrotation
      JOINT RightFoot
      {
        OFFSET 40.6238 0 0
        CHANNELS 3 Zrotation Xrotation Yrotation
        JOINT RightToeBase
        {
          OFFSET 12.7242 0 0
          CHANNELS 3 Zrotation Xrotation Yrotation
          End Site
          {
            OFFSET 0 0 0
          }
        }
      }
    }
  }
  JOINT Spine
  {
    OFFSET 0.165834 0.87714 6.61349
    CHANNELS 3 Zrotation Xrotation Yrotation
    JOINT Spine1
    {
      OFFSET 7.38963 1.71661e-005 0
      CHANNELS 3 Zrotation Xrotation Yrotation
      JOINT Spine2
      {
        OFFSET 11.9445 1.14441e-005 0
        CHANNELS 3 Zrotation Xrotation Yrotation
        JOINT Spine3
        {
          OFFSET 14.7254 4.19617e-005 0
          CHANNELS 3 Zrotation Xrotation Yrotation
          JOINT Spine4
          {
            OFFSET 10.9679 0 0
            CHANNELS 3 Zrotation Xrotation Yrotation
            JOINT RightShoulder
            {
              OFFSET 2.46616 -1.6653 3.69651
              CHANNELS 3 Zrotation Xrotation Yrotation
              JOINT RightArm
              {
                OFFSET 13.0012 0 0
                CHANNELS 3 Zrotation Xrotation Yrotation
                JOINT RightForeArm
                {
                  OFFSET 28.7848 1.52588e-005 0
                  CHANNELS 3 Zrotation Xrotation Yrotation
                  JOINT RightHand
                  {
                    OFFSET 26.5688 1.52588e-005 0
                    CHANNELS 3 Zrotation Xrotation Yrotation
                    End Site
                    {
                      OFFSET 0 0 0
                    }
                  }
                }
              }
            }
            JOINT LeftShoulder
            {
              OFFSET 2.38034 -1.29275 -3.7523
              CHANNELS 3 Zrotation Xrotation Yrotation
              JOINT LeftArm
              {
                OFFSET 16.3182 6.10352e-005 0
                CHANNELS 3 Zrotation Xrotation Yrotation
                JOINT LeftForeArm
                {
                  OFFSET 27.0901 0 0
                  CHANNELS 3 Zrotation Xrotation Yrotation
                  JOINT LeftHand
                  {
                    OFFSET 24.5451 1.52588e-005 0
                    CHANNELS 3 Zrotation Xrotation Yrotation
                    End Site
                    {
                      OFFSET 0 0 0
                    }
                  }
                }
              }
            }
            JOINT Neck
            {
              OFFSET 5.0226 -0.0266342 0
              CHANNELS 3 Zrotation Xrotation Yrotation
              JOINT Head
              {
                OFFSET 6.69363 2.86102e-005 0
                CHANNELS 3 Zrotation Xrotation Yrotation
                End Site
                {
                  OFFSET 0 0 0
                }
              }
            }
          }
        }
      }
    }
  }
}
MOTION
Frames:	6
Frame Time:	0.0416667
92.0684 92.8857 111.412 -90.6738 47.0533 -87.2482 -171.023 17.6801 90.2757 -58.1537 27.3534 2.8955 86.7085 13.8461 0.644491 21.8432 1.62873 -11.3205 176.871 22.4874 89.9512 -81.9295 10.1798 -4.33192 72.5383 -4.92477 -2.55191 13.7464 -3.69683 2.95279 -0.437296 8.30176 -90.2859 10.2734 -1.00197 -0.479975 -1.39717 -1.02214 -0.43541 -23.9344 -0.811412 -0.758923 -3.92175 -0.811391 -0.758919 89.9484 -47.99 -101.17 12.8485 -9.2849 5.94523 -52.0001 24.5556 -107.589 -3.04688 -0.302551 6.96127 -89.9457 -45.3696 77.9983 -9.19816 -2.31529 -4.78029 28.8443 -20.1782 -117.291 -9.76 0.0221453 -5.35487 25.4287 5.77363 -5.78819 8.84115 7.68417 1.65659 
98.6498 93.5863 118.434 -95.1997 49.235 -85.6151 -171.565 21.1945 88.4791 -57.0544 26.7141 2.08558 81.3654 11.4167 1.69776 20.1586 0.0889953 -8.61298 176.06 4.72197 84.4994 -74.0799 4.07997 -6.13273 66.3647 -3.30585 -2.74434 16.2695 -3.71115 4.18723 0.400212 8.2803 -90.0576 10.3114 0.770938 -0.18074 -1.35934 0.762224 -0.214495 -23.8959 0.789612 0.0593416 -3.88326 0.789597 0.0593327 89.0153 -46.6843 -102.989 12.7644 -1.54029 -3.32872 -51.5659 23.771 -110.341 -1.12099 -0.0544564 4.47933 -89.0363 -47.5819 79.8903 -20.1253 7.70058 14.4046 35.3036 -24.383 -112.701 -15.1048 0.434197 -8.84715 18.0105 3.19163 -3.86317 11.153 4.33552 1.02721 
105.446 94.8383 125.43 -97.0641 51.861 -86.141 -172.495 23.9216 86.6896 -50.2743 26.0083 1.02915 73.8286 7.65935 2.50934 19.7799 -0.699986 -6.91683 174.559 -7.37473 81.7238 -60.5759 -6.71374 -8.79446 61.5104 -1.763 -1.19378 18.7556 -3.18481 4.15438 1.32852 8.17183 -89.7968 10.5306 2.73956 0.159143 -1.13751 2.74391 0.0383126 -23.6936 2.56499 0.975671 -3.68094 2.56499 0.975666 90.0093 -42.9004 -102.398 14.7893 2.60945 -12.3028 -45.143 21.4298 -112.911 -5.32404 -0.572648 8.3278 -87.157 -45.6069 82.4327 -27.3359 15.4263 29.2857 29.3043 -26.0266 -115.19 -14.0231 0.504156 -9.97462 13.7405 0.38345 -4.07674 11.7865 1.55308 1.06978 
113.399 95.3964 133.063 -94.0249 53.2303 -89.3768 -173.105 28.9353 87.305 -40.8057 31.8029 -0.0629269 65.4397 3.50166 2.59572 20.6334 -2.18509 -2.46553 174.162 -12.2876 81.7242 -49.2029 -18.2732 -10.2596 60.5805 -1.26249 -1.6951 21.3776 -3.07705 5.31885 1.92891 8.03356 -89.6425 10.8058 4.00585 0.337776 -0.858958 4.01684 0.160843 -23.4384 3.71888 1.52773 -3.42574 3.71888 1.52772 92.9278 -37.2811 -98.798 17.5524 4.17254 -21.2151 -43.9078 21.8371 -115.212 -5.35928 -0.55935 7.82032 -87.3719 -42.4236 81.4675 -29.9879 17.6185 37.8914 27.0377 -27.4776 -118.015 -11.9795 0.374035 -9.70341 14.9322 -1.75717 -4.4982 10.0026 -0.284495 1.86134 
122.53 93.7818 141.308 -87.9887 52.7556 -93.7847 -172.257 38.7867 89.2704 -43.1852 42.0874 -1.42473 66.7198 4.1055 1.92659 19.0667 -4.75634 2.20538 176.074 -10.587 85.6522 -40.7436 -14.5914 -8.32544 66.8505 -3.49315 -2.24735 31.93 -1.89795 9.25247 1.81477 7.79713 -89.5823 11.2758 3.80616 0.457712 -0.389581 3.82262 0.289494 -22.9633 3.49244 1.58179 -2.95064 3.49243 1.58179 94 -34.8518 -97.4008 18.142 9.1241 -27.8423 -35.407 20.0538 -121.378 -9.95571 -1.37435 11.273 -88.2344 -39.9892 79.516 -31.5562 16.4562 41.4329 27.0692 -29.0213 -121.277 -10.8577 0.361277 -10.2535 19.3663 -1.74337 -4.52933 7.0749 -0.1037 2.18756 
131.974 90.6057 149.476 -89.7686 51.2632 -91.2639 -168.047 46.4033 90.5222 -64.3003 38.0437 -1.46154 72.4205 7.28858 3.07367 18.9066 -3.52702 -0.888706 177.309 -6.81265 90.9095 -44.5999 -1.15764 -6.07617 83.5069 -8.73649 -0.0298071 44.2476 1.22229 7.41761 1.29969 8.06261 -89.8422 10.7481 2.66087 0.0691999 -0.920137 2.66136 -0.0480679 -23.4754 2.51696 0.866214 -3.46272 2.51697 0.866212 94.1936 -35.6158 -96.8688 18.0993 11.6464 -31.004 -31.0978 19.7327 -126.69 -13.948 -1.99031 11.8266 -88.4506 -42.0654 79.6271 -31.3452 17.8291 37.0082 29.0701 -30.7768 -121.756 -12.8725 0.626097 -11.8677 21.8165 0.205244 -3.34344 8.14245 1.48967 2.14921 
